# xmcd
#
# Track frame offsets: 
#        150
#        21625
#        43215
#        64690
#        86280
#
# Disc length: 1434 seconds
#
# Revision: 0
# Processed by: cddbd v1.5.2PL0 Copyright (c) Steve Scherf et al.
# Submitted via: ExactAudioCopyFreeDBPlugin 1.0
#
DISCID=3d059805
DTITLE=真木ことみ - 夕陽的港
DYEAR=2003
DGENRE=Country
TTITLE0=いのち川
TTITLE1=夕陽の港
TTITLE2=いのち川(カラオケ)
TTITLE3=夕陽の港(カラオケ)
TTITLE4=いのち川(一般用カラオケ)
EXTD=
EXTT0=
EXTT1=
EXTT2=
EXTT3=
EXTT4=
PLAYORDER=
